<?xml version="1.0" standalone="no"?><!-- Generator: Gravit.io --><svg xmlns="http://www.w3.org/2000/svg" xmlns:xlink="http://www.w3.org/1999/xlink" style="isolation:isolate" viewBox="0 0 500 500" width="500" height="500"><defs><clipPath id="_clipPath_5zINcAssyS0S8n2HnCnxVaF5SRzXSD9b"><rect width="500" height="500"/></clipPath></defs><g clip-path="url(#_clipPath_5zINcAssyS0S8n2HnCnxVaF5SRzXSD9b)"><path d="M 145 56 L 355 56 C 393.634 56 425 87.366 425 126 L 425 336 C 425 374.634 393.634 406 355 406 L 145 406 C 106.366 406 75 374.634 75 336 L 75 126 C 75 87.366 106.366 56 145 56 Z" style="stroke:none;fill:#515050;stroke-miterlimit:10;"/><path d="M 163.948 190 L 336.052 190 C 351.201 190 363.5 202.299 363.5 217.448 L 363.5 244.552 C 363.5 259.701 351.201 272 336.052 272 L 163.948 272 C 148.799 272 136.5 259.701 136.5 244.552 L 136.5 217.448 C 136.5 202.299 148.799 190 163.948 190 Z" style="stroke:none;fill:#61AFEF;stroke-miterlimit:10;"/><path d="M 277.021 299 L 442.979 299 C 457.892 299 470 311.108 470 326.021 L 470 353.979 C 470 368.892 457.892 381 442.979 381 L 277.021 381 C 262.108 381 250 368.892 250 353.979 L 250 326.021 C 250 311.108 262.108 299 277.021 299 Z" style="stroke:none;fill:#DB5B66;stroke-miterlimit:10;"/><path d="M 57.021 81 L 222.979 81 C 237.892 81 250 93.108 250 108.021 L 250 135.979 C 250 150.892 237.892 163 222.979 163 L 57.021 163 C 42.108 163 30 150.892 30 135.979 L 30 108.021 C 30 93.108 42.108 81 57.021 81 Z" style="stroke:none;fill:#4EDD4E;stroke-miterlimit:10;"/></g></svg>